<?xml version="1.0" encoding="UTF-8"?><svg xmlns="http://www.w3.org/2000/svg" width="312.6" height="267.1" viewBox="0 0 312.6 267.1"><g id="a"/><g id="b"><g id="c"><g><path id="d" d="M192.3,153.1l-7.6,7.6c-2.1,2.1-3.3,5-3.3,8v68.2H30.2V85.6h124.8c3,0,5.9-1.2,8-3.3l7.6-7.6c4.4-4.4,4.4-11.6,0-16-2.1-2.1-5-3.3-8-3.3H22.7c-12.5,0-22.7,10.2-22.7,22.7H0V244.4c0,12.5,10.2,22.7,22.7,22.7H189c12.5,0,22.7-10.2,22.7-22.7v-83.3c0-6.3-5-11.4-11.3-11.4-3,0-5.9,1.2-8.1,3.3Z"/><path id="e" d="M166.6,11c-1.2,7.3,3.7,14.3,11.1,15.5l87.9,14.3L71.3,180.9c-5.9,4.5-7.1,12.9-2.6,18.9,4.3,5.7,12.4,7,18.3,3L281.2,62.8l-14.2,87.9c-1.1,7.3,3.9,14.2,11.2,15.4,7.3,1.1,14.2-3.9,15.3-11.2l18.9-119.6h0c.2-1.7,.1-3.4-.2-5.1-.4-1.7-1.1-3.4-2.2-4.8-2.1-2.9-5.2-4.8-8.6-5.4L182.1,.2c-7.2-1.4-14.1,3.3-15.4,10.5,0,0,0,.2,0,.3Z"/></g></g></g></svg>